HIERARCHY
ROOT Hips
{
	OFFSET 0.00000 0.00000 0.00000
	CHANNELS 6 Xposition Yposition Zposition Zrotation Yrotation Xrotation 
	JOINT LHipJoint
	{
		OFFSET 0 0 0
		CHANNELS 3 Zrotation Yrotation Xrotation
		JOINT LeftHip
		{
			OFFSET 1.57338 -1.94743 0.52196
			CHANNELS 3 Zrotation Yrotation Xrotation
			JOINT LeftKnee
			{
				OFFSET 2.60333 -7.15259 0.00000
				CHANNELS 3 Zrotation Yrotation Xrotation
				JOINT LeftAnkle
				{
					OFFSET 2.77855 -7.63400 0.00000
					CHANNELS 3 Zrotation Yrotation Xrotation
					JOINT LeftToe
					{
						OFFSET 0.19847 -0.54529 2.28466
						CHANNELS 3 Zrotation Yrotation Xrotation
						End Site
						{
							OFFSET 0.00000 -0.00000 1.17993
						}
					}
				}
			}
		}
	}
	JOINT RHipJoint
	{
		OFFSET 0 0 0
		CHANNELS 3 Zrotation Yrotation Xrotation
		JOINT RightHip
		{
			OFFSET -1.61527 -1.94743 0.52196
			CHANNELS 3 Zrotation Yrotation Xrotation
			JOINT RightKnee
			{
				OFFSET -2.53829 -6.97390 0.00000
				CHANNELS 3 Zrotation Yrotation Xrotation
				JOINT RightAnkle
				{
					OFFSET -2.80762 -7.71387 0.00000
					CHANNELS 3 Zrotation Yrotation Xrotation
					JOINT RightToe
					{
						OFFSET -0.30536 -0.83898 2.28801
						CHANNELS 3 Zrotation Yrotation Xrotation
						End Site
						{
							OFFSET -0.00000 -0.00000 1.21323
						}
					}
				}
			}
		}
	}
	JOINT lowerback
	{
		OFFSET 0 0 0
		CHANNELS 3 Zrotation Yrotation Xrotation
		JOINT Chest
		{
			OFFSET -0.04381 1.99497 -0.19778
			CHANNELS 3 Zrotation Yrotation Xrotation
			JOINT Chest2
			{
				OFFSET -0.01959 2.01295 -0.04372
				CHANNELS 3 Zrotation Yrotation Xrotation
				JOINT lowerneck
				{
					OFFSET 0 0 0
					CHANNELS 3 Zrotation Yrotation Xrotation
					JOINT Neck
					{
						OFFSET -0.05459 1.76913 0.09708
						CHANNELS 3 Zrotation Yrotation Xrotation
						JOINT Head
						{
							OFFSET 0.09461 1.77368 -0.11172
							CHANNELS 3 Zrotation Yrotation Xrotation
							End Site
							{
								OFFSET 0.03812 1.78157 -0.04834
							}
						}
					}
				}
				JOINT LeftCollar
				{
					OFFSET 0 0 0
					CHANNELS 3 Zrotation Yrotation Xrotation
					JOINT LeftShoulder
					{
						OFFSET 3.50922 1.24034 -0.28866
CHANNELS 3 Zrotation Xrotation Yrotation
						JOINT LeftElbow
						{
OFFSET 0 -5.401880 0.000000
CHANNELS 3 Zrotation Xrotation Yrotation
							JOINT LeftWrist
							{
OFFSET 0 -3.685590 0.000000
CHANNELS 3 Zrotation Xrotation Yrotation
								JOINT lhand
								{
									OFFSET 0 0 0
CHANNELS 3 Zrotation Xrotation Yrotation
									JOINT LFingers
									{
OFFSET 0 -0.617530 0.000000
CHANNELS 3 Zrotation Xrotation Yrotation
										End Site
										{
OFFSET 0 -0.497870 0.000000
										}
									}
								}
								JOINT LThumb
								{
OFFSET 0 0.000000 0.000000
CHANNELS 3 Zrotation Xrotation Yrotation
									End Site
									{
OFFSET 0 -0.505470 0.505470
									}
								}
							}
						}
					}
				}
				JOINT RightCollar
				{
					OFFSET 0 0 0
					CHANNELS 3 Zrotation Yrotation Xrotation
					JOINT RightShoulder
					{
						OFFSET -2.95373 1.39649 -0.27346
CHANNELS 3 Zrotation Xrotation Yrotation
						JOINT RightElbow
						{
OFFSET 0 -6.106700 -0.000000
CHANNELS 3 Zrotation Xrotation Yrotation
							JOINT RightWrist
							{
OFFSET 0 -3.630520 0.000000
CHANNELS 3 Zrotation Xrotation Yrotation
								JOINT rhand
								{
									OFFSET 0 0 0
CHANNELS 3 Zrotation Xrotation Yrotation
									JOINT RFingers
									{
OFFSET 0 -0.583850 0.000000
CHANNELS 3 Zrotation Xrotation Yrotation
										End Site
										{
OFFSET 0 -0.470710 0.000000
										}
									}
								}
								JOINT RThumb
								{
OFFSET 0 0.000000 0.000000
CHANNELS 3 Zrotation Xrotation Yrotation
									End Site
									{
OFFSET 0 -0.477900 0.477900
									}
								}
							}
						}
					}
				}
			}
		}
	}
}
MOTION
Frames: 9
Frame Time: 0.008333333333333333
-0.504100 18.899000 -12.950400 0.997000 -8.073700 2.385000 0.000000 0.000000 0.000000 -20.903700 -7.000100 1.859500 0.398500 4.053000 11.225700 0.048400 12.067700 -17.799200 0.043000 -1.338400 -3.680600 0.000000 0.000000 0.000000 18.951100 21.758400 4.589700 -0.720500 -5.423900 15.121700 0.001700 -13.036200 -18.514600 -0.087000 1.902100 -5.235200 -1.969700 0.580500 3.618900 -1.611500 0.617700 -1.541200 -0.597000 0.333100 -3.620800 -10.097800 -6.467900 -9.942200 8.430600 -8.710400 16.610400 3.555600 -4.112400 7.555800 -0.000000 -0.000000 0.000000 4.463600 8.031700 -7.321100 16.552700 -26.264300 3.887300 14.662600 6.260800 -23.951400 0.000000 0.000000 0.000000 -7.125000 0.000000 0.000000 -15.366900 53.981600 3.455400 -0.000000 -0.000000 0.000000 -7.280600 8.289200 24.733900 -19.206600 -29.674600 -5.132700 -19.157100 12.841300 -2.511700 0.000000 0.000000 0.000000 7.125000 0.000000 -0.000000 5.702000 27.308800 2.461800
-0.504242 18.897794 -12.951322 0.973302 -8.035386 2.403589 0.000000 0.000000 0.000000 -20.868579 -7.018547 1.809408 0.402048 4.070951 11.276359 0.055140 12.009307 -17.806224 0.036331 -1.228070 -3.376643 0.000000 0.000000 0.000000 18.970115 21.703909 4.584521 -0.718584 -5.416876 15.101408 -0.002912 -13.010799 -18.535318 -0.084091 1.870385 -5.147504 -1.955084 0.566026 3.567744 -1.597877 0.601807 -1.517006 -0.589195 0.324728 -3.566735 -10.089712 -6.463927 -10.012726 8.418396 -8.696990 16.609123 3.549853 -4.104524 7.565733 0.000000 0.000000 0.000000 4.477932 7.906683 -7.312941 16.570722 -26.288353 3.895318 14.530133 6.386242 -23.846463 0.000000 0.000000 0.000000 -7.125000 0.000000 0.000000 -15.447004 53.854739 3.425671 0.000000 0.000000 0.000000 -7.280387 8.149567 24.764125 -19.227034 -29.699859 -5.142846 -19.222234 12.794330 -2.420243 0.000000 0.000000 0.000000 7.125000 0.000000 0.000000 5.656023 27.404301 2.429020
-0.504929 18.897887 -12.951993 0.995740 -8.000257 2.410362 0.000000 0.000000 0.000000 -20.884664 -7.025765 1.789989 0.402452 4.073020 11.282224 0.056517 11.978486 -17.781905 0.031966 -1.153107 -3.170237 0.000000 0.000000 0.000000 18.943078 21.705904 4.581185 -0.717716 -5.413665 15.092220 -0.006099 -13.010750 -18.573886 -0.079171 1.814449 -4.993098 -2.000306 0.554653 3.534271 -1.596323 0.586039 -1.494780 -0.560565 0.317654 -3.525241 -10.068298 -6.464814 -10.117403 8.396723 -8.690494 16.647067 3.537192 -4.098870 7.594188 0.000000 0.000000 0.000000 4.510409 7.795830 -7.372203 16.582709 -26.304318 3.900611 14.472548 6.415643 -23.684495 0.000000 0.000000 0.000000 -7.125000 0.000000 0.000000 -15.425452 53.686183 3.356805 0.000000 0.000000 0.000000 -7.265299 8.011736 24.765563 -19.238585 -29.714097 -5.148592 -19.323278 12.786079 -2.412467 0.000000 0.000000 0.000000 7.125000 0.000000 0.000000 5.578913 27.411218 2.394607
-0.505839 18.898931 -12.952310 1.035659 -7.967978 2.408814 0.000000 0.000000 0.000000 -20.921013 -7.024310 1.793145 0.400884 4.065096 11.259890 0.054099 11.968810 -17.737670 0.030124 -1.119667 -3.078247 0.000000 0.000000 0.000000 18.902706 21.748226 4.585040 -0.717343 -5.412287 15.088365 -0.006910 -13.036901 -18.620138 -0.073846 1.753113 -4.823864 -2.064384 0.545493 3.520127 -1.602080 0.571182 -1.482083 -0.529298 0.311482 -3.504673 -10.047583 -6.469174 -10.216034 8.376672 -8.691234 16.707033 3.524571 -4.096708 7.629581 0.000000 0.000000 0.000000 4.560630 7.705284 -7.482229 16.586799 -26.309741 3.902384 14.479585 6.383310 -23.527611 0.000000 0.000000 0.000000 -7.125000 0.000000 0.000000 -15.342426 53.534540 3.280295 0.000000 0.000000 0.000000 -7.240155 7.901327 24.755131 -19.250764 -29.729077 -5.154656 -19.435694 12.805002 -2.442956 0.000000 0.000000 0.000000 7.125000 0.000000 0.000000 5.491416 27.377719 2.361168
-0.506051 18.900209 -12.951813 1.010046 -7.938604 2.406686 0.000000 0.000000 0.000000 -20.888517 -7.018847 1.802227 0.400246 4.061761 11.250454 0.051332 11.968313 -17.701626 0.032466 -1.163089 -3.197730 0.000000 0.000000 0.000000 18.946341 21.795834 4.615621 -0.715924 -5.407250 15.073820 -0.001447 -13.102034 -18.645184 -0.072994 1.743251 -4.796618 -2.026212 0.536624 3.537935 -1.603073 0.560042 -1.506278 -0.551364 0.305309 -3.539297 -10.071778 -6.473999 -10.180345 8.393630 -8.703012 16.743644 3.533795 -4.103378 7.638308 0.000000 0.000000 0.000000 4.634207 7.662146 -7.610438 16.574099 -26.292854 3.896779 14.544080 6.372880 -23.572382 0.000000 0.000000 0.000000 -7.125000 0.000000 0.000000 -15.300068 53.589953 3.291860 0.000000 0.000000 0.000000 -7.216173 7.909203 24.781241 -19.293619 -29.781936 -5.175942 -19.486992 12.825436 -2.384208 0.000000 0.000000 0.000000 7.125000 0.000000 0.000000 5.454521 27.439092 2.337257
-0.506319 18.900555 -12.951371 0.965541 -7.915692 2.407405 0.000000 0.000000 0.000000 -20.835870 -7.013000 1.807640 0.400100 4.061055 11.248464 0.051138 11.959548 -17.687596 0.032671 -1.166484 -3.206985 0.000000 0.000000 0.000000 19.004323 21.791149 4.631252 -0.714505 -5.402048 15.058891 0.002538 -13.128071 -18.633542 -0.077728 1.797674 -4.946898 -1.963016 0.537995 3.543478 -1.601657 0.564399 -1.527077 -0.585915 0.306255 -3.563244 -10.084583 -6.479152 -10.144328 8.405823 -8.716597 16.783376 3.539459 -4.110540 7.647364 0.000000 0.000000 0.000000 4.720816 7.587959 -7.788806 16.541905 -26.249848 3.882522 14.633161 6.391856 -23.838922 0.000000 0.000000 0.000000 -7.125000 0.000000 0.000000 -15.341708 53.866424 3.406206 0.000000 0.000000 0.000000 -7.203417 7.944129 24.840863 -19.361772 -29.865733 -5.209822 -19.387979 12.706128 -2.456113 0.000000 0.000000 0.000000 7.125000 0.000000 0.000000 5.527416 27.364447 2.378618
-0.506654 18.901628 -12.951049 0.924062 -7.899986 2.417707 0.000000 0.000000 0.000000 -20.785979 -7.009123 1.795206 0.400846 4.064854 11.259167 0.053274 11.938440 -17.686605 0.033763 -1.184778 -3.257299 0.000000 0.000000 0.000000 19.050530 21.811285 4.629659 -0.712494 -5.394586 15.037499 0.006420 -13.152983 -18.621462 -0.079306 1.815782 -4.996886 -1.907870 0.543628 3.526189 -1.596392 0.575139 -1.537746 -0.612023 0.310462 -3.563979 -10.090754 -6.480263 -10.143076 8.408432 -8.721307 16.834907 3.540986 -4.112835 7.664898 0.000000 0.000000 0.000000 4.794080 7.494950 -7.957789 16.506182 -26.202126 3.866735 14.701027 6.396285 -24.051343 0.000000 0.000000 0.000000 -7.125000 0.000000 0.000000 -15.378007 54.086200 3.497729 0.000000 0.000000 0.000000 -7.202490 7.950007 24.918520 -19.422032 -29.939757 -5.239816 -19.234026 12.542409 -2.570692 0.000000 0.000000 0.000000 7.125000 0.000000 0.000000 5.640543 27.245643 2.443575
-0.507080 18.904466 -12.950907 0.897739 -7.893601 2.443391 0.000000 0.000000 0.000000 -20.751426 -7.008910 1.753273 0.402903 4.075213 11.288328 0.058170 11.899913 -17.697106 0.037523 -1.250125 -3.437233 0.000000 0.000000 0.000000 19.068552 21.902316 4.605535 -0.709444 -5.383234 15.004933 0.010890 -13.196263 -18.627706 -0.072424 1.736530 -4.778001 -1.879916 0.551433 3.475104 -1.585608 0.589046 -1.532354 -0.616776 0.316706 -3.529426 -10.091180 -6.474090 -10.203172 8.396654 -8.709458 16.905574 3.537084 -4.106307 7.697181 0.000000 0.000000 0.000000 4.837077 7.384975 -8.084153 16.474396 -26.159697 3.852758 14.718765 6.359816 -24.053117 0.000000 0.000000 0.000000 -7.125000 0.000000 0.000000 -15.361191 54.091166 3.495600 0.000000 0.000000 0.000000 -7.216539 7.890691 25.010473 -19.455237 -29.980483 -5.256419 -19.061614 12.373260 -2.692374 0.000000 0.000000 0.000000 7.125000 0.000000 0.000000 5.767333 27.119917 2.516088
-0.507303 18.901219 -12.950224 0.945654 -7.894923 2.436216 0.000000 0.000000 0.000000 -20.801118 -6.978407 1.737101 0.403811 4.079554 11.300653 0.061848 11.866592 -17.699628 0.038444 -1.265776 -3.480385 0.000000 0.000000 0.000000 19.018555 21.826006 4.652405 -0.707610 -5.376344 14.985145 0.000552 -13.128186 -18.657750 -0.071897 1.730163 -4.760601 -1.928160 0.553220 3.436257 -1.596594 0.589768 -1.539470 -0.600773 0.318014 -3.515292 -10.076596 -6.456491 -10.199780 8.370407 -8.685912 16.947980 3.528989 -4.096399 7.706205 0.000000 0.000000 0.000000 4.854921 7.380747 -8.161364 16.488316 -26.178254 3.858861 14.858409 6.352218 -23.798773 0.000000 0.000000 0.000000 -7.125000 0.000000 0.000000 -15.097995 53.868549 3.351417 0.000000 0.000000 0.000000 -7.219837 7.828807 25.079573 -19.435502 -29.956234 -5.246585 -18.948903 12.342379 -2.742657 0.000000 0.000000 0.000000 7.125000 0.000000 0.000000 5.851325 27.068564 2.560203
